<svg xmlns="http://www.w3.org/2000/svg" width="99" height="26" viewBox="0 0 99 26">
  <g fill="#1F5081" fill-rule="evenodd">
    <path d="M77.0758 19.17187C77.85859 19.17187 78.17786 19.50643 78.17786 20.326693L78.17786 20.73491 75.91784 20.73491 75.91784 20.326693C75.91784 19.52814 76.27494 19.17187 77.0758 19.17187L77.0758 19.17187zM78.99015 21.615928C79.09304 21.615928 79.1766 21.532042 79.1766 21.428426L79.1766 20.417108C79.1766 18.98608 78.48937 18.29043 77.0758 18.29043 75.64247 18.29043 74.88494 19.01801 74.88494 20.39454L74.88494 22.046572C74.88494 23.458584 75.58827 24.116473 77.09838 24.116473 77.72238 24.116473 78.4075 24.01229 78.93073 23.837846 79.01767 23.808749 79.07074 23.720604 79.05592 23.629621L78.97674 23.143621C78.96827 23.092097 78.93877 23.046393 78.89544 23.017579 78.86467 22.99714 78.82896 22.986636 78.79283 22.986636 78.77787 22.986494 78.76276 22.988481 78.74794 22.99203 78.16177 23.138369 77.63332 23.212745 77.17728 23.212745 76.20027 23.212745 75.91784 22.948454 75.91784 22.035217L75.91784 21.615928 78.99015 21.615928zM85.40047 23.816229L85.40047 16.34383C85.40047 16.2405 85.31691 16.15661 85.21416 16.15661L84.5536 16.15661C84.4507 16.15661 84.36729 16.2405 84.36729 16.34383L84.36729 23.816229C84.36729 23.919703 84.4507 24.003447 84.5536 24.003447L85.21416 24.003447C85.31691 24.003447 85.40047 23.919703 85.40047 23.816229M87.51379 23.926005C87.5488 23.97469 87.60497 24.003504 87.66482 24.003504L88.42404 24.003504C88.49433 24.003504 88.55869 23.963761 88.59045 23.900456 88.62206 23.837293 88.61571 23.761639 88.57393 23.704721L86.71491 21.174795 88.4891 18.70065C88.53004 18.64345 88.53568 18.56836 88.50392 18.50563 88.47203 18.44303 88.40809 18.40371 88.33808 18.40371L87.5982 18.40371C87.53793 18.40371 87.48147 18.43295 87.44647 18.48221L85.61497 21.065927C85.56853 21.131361 85.56881 21.219222 85.61553 21.284372L87.51379 23.926005zM81.62952 23.212703C81.21484 23.212703 80.67736 23.141875 80.22724 23.027898 80.21214 23.024207 80.1969 23.02222 80.18165 23.02222 80.1458 23.02222 80.11024 23.032724 80.07975 23.052879 80.03613 23.081551 80.00649 23.127255 79.99788 23.178921L79.91941 23.652431C79.90416 23.743556 79.95723 23.831984 80.04446 23.861082 80.49528 24.011396 81.17009 24.116431 81.68556 24.116431 82.96744 24.116431 83.61854 23.862785 83.61854 22.476463 83.61854 21.315684 83.4407 21.137976 81.88866 20.747642 80.98915 20.526785 80.98915 20.421892 80.98915 19.83994 80.98915 19.41583 81.0281 19.19426 81.86608 19.19426 82.24661 19.19426 82.76659 19.24394 83.22291 19.32385 83.23364 19.32569 83.24422 19.32655 83.25495 19.32655 83.29574 19.32655 83.33568 19.31306 83.36843 19.2878 83.40978 19.25558 83.43604 19.2076 83.44055 19.15551L83.48403 18.65148C83.49179 18.55951 83.4318 18.47519 83.34232 18.45333 82.91846 18.34986 82.39255 18.29039 81.89967 18.29039 80.29556 18.29039 79.96683 18.90073 79.96683 19.817372 79.96683 20.976023 80.10671 21.28176 81.48315 21.625679 82.57068 21.893944 82.59651 21.943339 82.59651 22.510387 82.59651 23.030595 82.51732 23.212703 81.62952 23.212703M71.44778 23.042773L70.94389 23.043057C70.84099 23.043057 70.75758 23.126943 70.75758 23.230275L70.75758 23.816201C70.75758 23.919674 70.84099 24.003419 70.94403 24.003419L71.61475 24.003419C73.20052 23.995328 74.03821 23.232404 74.03821 21.797539L74.03821 18.58389C74.03821 17.57754 73.61323 16.37801 71.58864 16.37801L69.11168 16.37801C69.00893 16.37801 68.92537 16.4619 68.92537 16.56537L68.92537 23.816201C68.92537 23.919674 69.00893 24.003419 69.11168 24.003419L69.79468 24.003419C69.89772 24.003419 69.981 23.919674 69.981 23.816201L69.981 17.33851 71.55505 17.33851C72.56889 17.33851 72.98245 17.7192 72.98245 18.65174L72.98245 21.72955C72.98245 22.633278 72.50919 23.038373 71.44778 23.042773M68.8938 13.40309C69.48689 13.62182 70.30186 13.75766 71.02043 13.75766 72.59307 13.75766 73.50346 13.41331 73.50346 11.65369 73.50346 10.14743 73.34622 9.83985 71.37908 9.3476 69.92966 8.98239 69.92966 8.96266 69.92966 7.93105 69.92966 7.47357 70.0063 7.21737 70.18598 7.07473 70.37723 6.92299 70.73165 6.85529 71.33504 6.85529 71.89426 6.85529 72.53506 6.92129 73.09343 7.03612 73.10585 7.03867 73.11841 7.03995 73.13069 7.03995 73.17035 7.03995 73.20917 7.02718 73.24163 7.00333 73.28398 6.97168 73.31122 6.92356 73.3163 6.87062L73.3681 6.32614C73.37713 6.23302 73.31658 6.14786 73.22611 6.12586 72.66449 5.99031 71.93138 5.90614 71.31288 5.90614 70.45402 5.90614 69.92585 6.01614 69.5473 6.27447 69.09451 6.58333 68.87432 7.1139 68.87432 7.89712 68.87432 8.60767 68.89846 9.13937 69.20968 9.51466 69.5147 9.88257 70.07222 10.06666 70.93222 10.26027 72.44826 10.60589 72.44826 10.66636 72.44826 11.6764 72.44826 12.56536 72.14606 12.80879 71.04273 12.80879 70.41605 12.80879 69.74857 12.71128 69.11257 12.52704 69.09578 12.52207 69.07842 12.51966 69.06105 12.51966 69.02704 12.51952 68.99359 12.52903 68.96409 12.54705 68.91963 12.57416 68.88843 12.61916 68.87827 12.6704L68.77509 13.19075C68.75717 13.28116 68.8077 13.37144 68.8938 13.40309M93.57586 13.62071C93.66662 13.598 93.72661 13.51128 93.71602 13.4176L93.65759 12.90037C93.6518 12.8487 93.62498 12.80172 93.58348 12.77106 93.55102 12.74693 93.51221 12.73416 93.47254 12.73416 93.46125 12.73416 93.44996 12.73515 93.43881 12.73714 93.09682 12.80044 92.75482 12.83125 92.39321 12.83125 91.47421 12.83125 91.17936 12.56695 91.17936 11.74413L91.17936 9.94519C91.17936 9.12223 91.47421 8.85808 92.39321 8.85808 92.75313 8.85808 93.09456 8.88874 93.43683 8.9519 93.44798 8.95403 93.45928 8.95502 93.47043 8.95502 93.51051 8.95502 93.54989 8.94197 93.5825 8.91727 93.62413 8.88604 93.65053 8.83835 93.65575 8.78612L93.70713 8.26946C93.71616 8.17705 93.65674 8.09175 93.56725 8.06904 93.31672 8.00559 92.8532 7.93164 92.37119 7.93164 91.60971 7.93164 91.115 8.0513 90.76679 8.31928 90.34943 8.64091 90.14646 9.18369 90.14646 9.97912L90.14646 11.71035C90.14646 12.93926 90.52487 13.75768 92.37119 13.75768 92.85518 13.75768 93.32251 13.68387 93.57586 13.62071M96.5646 8.81307C97.3474 8.81307 97.6666 9.14762 97.6666 9.96789L97.6666 10.37611 95.40635 10.37611 95.40635 9.96789C95.40635 9.16934 95.76344 8.81307 96.5646 8.81307L96.5646 8.81307zM98.4789 11.25712C98.5818 11.25712 98.6654 11.17324 98.6654 11.06962L98.6654 10.0583C98.6654 8.62727 97.9782 7.93163 96.5646 7.93163 95.13125 7.93163 94.37359 8.65921 94.37359 10.03574L94.37359 11.68777C94.37359 13.09978 95.07705 13.75767 96.587 13.75767 97.2112 13.75767 97.8963 13.65349 98.4195 13.47904 98.5063 13.44994 98.5594 13.3618 98.5446 13.27082L98.4655 12.78482C98.4571 12.73329 98.4276 12.68759 98.3842 12.65877 98.3535 12.63834 98.3177 12.62783 98.2816 12.62783 98.2667 12.62769 98.2515 12.62968 98.2367 12.63323 97.6506 12.77957 97.1221 12.85394 96.6659 12.85394 95.68892 12.85394 95.40635 12.58965 95.40635 11.67641L95.40635 11.25712 98.4789 11.25712zM76.55547 8.81307C77.33812 8.81307 77.65739 9.14762 77.65739 9.96789L77.65739 10.37611 75.39737 10.37611 75.39737 9.96789C75.39737 9.16934 75.75447 8.81307 76.55547 8.81307M76.55547 7.93163C75.12214 7.93163 74.36447 8.65921 74.36447 10.03574L74.36447 11.68777C74.36447 13.09978 75.06794 13.75767 76.57805 13.75767 77.19288 13.75767 77.89493 13.65093 78.4104 13.47904 78.49734 13.44994 78.55055 13.3618 78.53559 13.27082L78.45641 12.78482C78.44794 12.73329 78.41844 12.68759 78.37497 12.65877 78.34434 12.63834 78.30863 12.62783 78.2725 12.62783 78.25754 12.62783 78.24243 12.62968 78.22761 12.63323 77.64144 12.77957 77.11299 12.85394 76.65695 12.85394 75.67994 12.85394 75.39737 12.58965 75.39737 11.67641L75.39737 11.25712 78.46996 11.25712C78.57285 11.25712 78.65627 11.17324 78.65627 11.06962L78.65627 10.0583C78.65627 8.62727 77.96918 7.93163 76.55547 7.93163M89.20753 13.45742L89.20753 8.21617C89.20753 8.11284 89.12398 8.02881 89.02122 8.02881L88.36123 8.02881C88.25833 8.02881 88.17492 8.11284 88.17492 8.21617L88.17492 13.45742C88.17492 13.5609 88.25833 13.64464 88.36123 13.64464L89.02122 13.64464C89.12398 13.64464 89.20753 13.5609 89.20753 13.45742M89.20753 5.9851C89.20753 5.88163 89.12398 5.79788 89.02122 5.79788L88.36123 5.79788C88.25833 5.79788 88.17492 5.88163 88.17492 5.9851L88.17492 6.87832C88.17492 6.9818 88.25833 7.06568 88.36123 7.06568L89.02122 7.06568C89.12398 7.06568 89.20753 6.9818 89.20753 6.87832L89.20753 5.9851zM80.28919 8.04488L79.74254 8.04488C79.63964 8.04488 79.55623 8.12877 79.55623 8.23224L79.55623 13.45745C79.55623 13.56079 79.63964 13.64467 79.74254 13.64467L80.40281 13.64467C80.50557 13.64467 80.58913 13.56079 80.58913 13.45745L80.58913 9.82111C80.90077 9.60238 81.48667 9.20807 82.03502 8.93243 82.10686 8.89637 82.14751 8.81817 82.13622 8.7384L82.05351 8.15574C82.04518 8.09726 82.00989 8.0463 81.95852 8.01791 81.93071 8.00258 81.89994 7.99492 81.86903 7.99492 81.84278 7.99492 81.81638 8.0006 81.79182 8.01195 81.3499 8.2145 80.88934 8.48958 80.51559 8.77317L80.47494 8.21847C80.46788 8.12053 80.38672 8.04488 80.28919 8.04488M85.70537 13.5162L87.42141 8.29099C87.44018 8.23393 87.43059 8.17133 87.39558 8.12251 87.36044 8.07368 87.30426 8.04487 87.24442 8.04487L86.61124 8.04487C86.53022 8.04487 86.45852 8.09753 86.43382 8.17517L85.0019 12.67294 83.57013 8.17517C83.54543 8.09753 83.47372 8.04487 83.39271 8.04487L82.75953 8.04487C82.69968 8.04487 82.64365 8.07368 82.6085 8.12251 82.57336 8.17133 82.56376 8.23393 82.58253 8.29099L84.29829 13.5162C84.32356 13.59285 84.39498 13.64466 84.47529 13.64466L85.52837 13.64466C85.60869 13.64466 85.67996 13.59285 85.70537 13.5162M31.98917 6.41369L29.26055 6.41369C29.01496 6.41369 28.81595 6.61382 28.81595 6.86065L28.81595 23.556409C28.81595 23.803525 29.01496 24.00366 29.26055 24.00366L31.98917 24.00366C32.23476 24.00366 32.43378 23.803525 32.43378 23.556409L32.43378 6.86065C32.43378 6.61382 32.23476 6.41369 31.98917 6.41369M44.52683 13.21874C44.52683 14.64012 43.98511 15.11945 42.37987 15.11945L38.92238 15.11945 38.92238 9.66444 42.37987 9.66444C44.16789 9.66444 44.52683 10.37186 44.52683 11.51376L44.52683 13.21874zM63.66766 23.422049L58.43315 6.72643C58.37472 6.54007 58.20337 6.41374 58.00929 6.41374L53.86033 6.41374C53.66626 6.41374 53.49448 6.54007 53.43633 6.72643L48.63485 22.040554 45.67998 17.75441C47.31585 17.07183 48.14508 15.64164 48.14508 13.5029L48.14508 11.25543C48.14508 7.9068 46.40631 6.41374 42.50803 6.41374L35.74915 6.41374C35.50342 6.41374 35.3044 6.61388 35.3044 6.86071L35.3044 23.556466C35.3044 23.80344 35.50342 24.003575 35.74915 24.003575L38.47777 24.003575C38.72336 24.003575 38.92238 23.80344 38.92238 23.556466L38.92238 18.32018 41.71493 18.32018 45.51287 23.811815C45.59586 23.931895 45.73235 24.003575 45.87787 24.003575L48.62582 24.003575 49.13888 24.003575 49.14157 24.003575 51.48203 24.003575C51.67921 24.003575 51.85254 23.873274 51.90858 23.683218L55.51328 11.40405C55.51328 11.40405 55.60757 11.09746 55.93389 11.09746 56.26587 11.09746 56.3466 11.41625 56.3466 11.41654L58.01917 17.23931 55.72147 17.23931C55.52203 17.23931 55.34729 17.37259 55.29324 17.56535L54.64877 19.870301C54.61094 20.005285 54.63832 20.149922 54.7223 20.261344 54.80643 20.372908 54.93741 20.438484 55.07658 20.438484L58.95426 20.438484 59.96161 23.689321C60.01948 23.876397 60.1914 24.003575 60.38603 24.003575L63.24366 24.003575C63.38537 24.003575 63.51861 23.936012 63.60217 23.820899 63.68587 23.70607 63.71014 23.557885 63.66766 23.422049L63.66766 23.422049zM25.59877 6.41369L22.83684 6.41369C22.60296 6.41369 22.41228 6.60445 22.41228 6.8395L22.41228 19.903884C22.41228 21.545696 21.16808 22.08535 20.32629 22.128499 20.21267 22.134035 20.08056 22.205998 20.00815 22.312595 19.93532 22.419617 19.91485 22.553891 19.95268 22.677663L20.62425 24.874458C20.67915 25.054153 20.87182 25.169691 21.18516 25.169691 23.82782 25.169691 26.0222 23.083183 26.0222 20.28641L26.0222 6.83979C26.0222 6.72666 25.9776 6.61822 25.89814 6.53831 25.81881 6.45825 25.71098 6.41369 25.59877 6.41369M4.210862 1.85888C3.362297 1.85888 2.675061 2.54913 2.675061 3.40474 2.675061 4.2578 3.362297 4.95046 4.210862 4.95046 5.060273 4.95046 5.74638 4.2578 5.74638 3.40474 5.74638 2.54913 5.060273 1.85888 4.210862 1.85888M14.29999 1.85888C13.45086 1.85888 12.76475 2.54913 12.76475 3.40474 12.76475 4.2578 13.45086 4.95046 14.29999 4.95046 15.14658 4.95046 15.83522 4.2578 15.83522 3.40474 15.83522 2.54913 15.14658 1.86016 14.29999 1.85888M9.25543.44863C8.40687.44863 7.71963 1.13859 7.71963 1.99449 7.71963 2.84769 8.40687 3.54049 9.25543 3.54049 10.10456 3.54049 10.79067 2.84769 10.79067 1.99449 10.79067 1.13859 10.10456.44863 9.25543.44863M17.93034 6.16584C17.84495 6.10069 17.74205 6.06663 17.63789 6.06663 17.5803 6.06663 17.52172 6.07742 17.46639 6.09871 16.42658 6.49855 15.37067 6.80216 14.40693 7.02798 14.21046 7.07397 14.05167 7.22088 13.98576 7.39731 13.28356 9.33152 11.49059 11.17304 9.60941 13.10228 9.5339 13.17438 9.42804 13.26948 9.25598 13.26948 9.08421 13.26948 8.97948 13.17736 8.90255 13.10228 7.02165 11.17304 5.228688 9.33791 4.526208 7.40341 4.460293 7.22741 4.301505 7.08036 4.105313 7.03437 3.14101 6.8084 2.082421 6.49543 1.043875 6.09573.988264 6.07429.92983 6.06365.87196 6.06365.767654 6.06365.666735 6.09658.581625 6.16201.448525 6.26421.379223 6.42999.395031 6.58925.554384 8.19771 1.18615 9.77011 2.326885 11.41788 3.399023 12.96715 4.797489 14.40117 6.14938 15.78763 8.64073 18.34296 10.99404 20.756357 11.20054 23.554975 11.21903 23.807344 11.42835 24.003078 11.68057 24.003078L14.60736 24.003078C14.73919 24.003078 14.86509 23.948573 14.95613 23.85248 15.04674 23.756529 15.09473 23.627648 15.0881 23.495077 14.99607 21.624033 14.29585 19.750291 12.94749 17.7674 12.66492 17.35166 12.3623 16.94713 12.04586 16.55126 11.91727 16.39002 11.97105 16.18974 12.06957 16.08868 12.16654 15.98861 12.26435 15.88883 12.36259 15.78763 13.71476 14.40088 15.11294 12.96715 16.18536 11.41788 17.32581 9.77011 17.95758 8.20679 18.11693 6.59862 18.13302 6.43695 18.05991 6.26549 17.93034 6.16584M6.11522 17.96455C6.04606 17.89174 5.944293 17.81736 5.773367 17.81736 5.555015 17.81736 5.425444 17.96924 5.376466 18.04446 4.145257 19.928425 3.50954 21.706499 3.421606 23.493374 3.415255 23.625093 3.463526 23.755961 3.554142 23.852196 3.64518 23.947863 3.772775 24.003078 3.904323 24.003078L6.82617 24.003078C7.07755 24.003078 7.28927 23.805214 7.30776 23.55313 7.37141 22.691984 7.63804 21.828709 8.12357 20.921575 8.29168 20.607747 8.16098 20.312939 8.06401 20.186897 7.58242 19.55711 6.99272 18.88531 6.11522 17.96455"/>
    <path d="M9.25873,7.60798 C10.1759,7.60798 10.70801,7.55248 10.89489,7.55248 C11.12114,7.55248 11.33766,7.73899 11.33766,8.0003 C11.33766,8.07652 11.31974,8.13088 11.30181,8.17886 C11.18014,8.50603 10.62587,9.6827 9.59367,10.69189 C9.47793,10.8053 9.34667,10.82659 9.25619,10.82659 L9.25521,10.82659 C9.16501,10.82659 9.03375,10.8053 8.91801,10.69189 C7.88582,9.6827 7.33126,8.50603 7.20987,8.17886 C7.19195,8.13088 7.17402,8.07652 7.17402,8.0003 C7.17402,7.73899 7.39082,7.55248 7.61707,7.55248 C7.80395,7.55248 8.33579,7.60798 9.25266,7.60798 L9.25873,7.60798 Z"/>
  </g>
</svg>
