<svg xmlns="http://www.w3.org/2000/svg" width="66" height="26" viewBox="0 0 66 26" xmlns:xlink="http://www.w3.org/1999/xlink">
  <defs>
    <polygon id="a" points="70 25.627 70 .083 .286 .083 .286 25.627 70 25.627"/>
  </defs>
  <g fill="none" fill-rule="evenodd" transform="translate(-2)">
    <mask id="b" fill="white">
      <use xlink:href="#a"/>
    </mask>
    <path fill="#1F5081" d="M35.0074882 6.2465902L32.181567 6.2465902C31.9273758 6.2465902 31.7211268 6.45339102 31.7211268 6.70858898L31.7211268 23.9602735C31.7211268 24.2154714 31.9273758 24.4222722 32.181567 24.4222722L35.0074882 24.4222722C35.2616847 24.4222722 35.4679284 24.2154714 35.4679284 23.9602735L35.4679284 6.70858898C35.4679284 6.45339102 35.2616847 6.2465902 35.0074882 6.2465902M42.1875696 9.60564694L45.7680271 9.60564694C47.6197203 9.60564694 47.9915827 10.3367722 47.9915827 11.5165514L47.9915827 13.2782955C47.9915827 14.7468604 47.4305779 15.2422931 45.7680271 15.2422931L42.1875696 15.2422931 42.1875696 9.60564694zM53.1202818 23.6595808L49.1857992 17.9649971C50.8799213 17.2596808 51.7385272 15.7820265 51.7385272 13.5719204L51.7385272 11.2494731C51.7385272 7.78948327 49.9379952 6.24656367 45.900899 6.24656367L38.9012081 6.24656367C38.6468688 6.24656367 38.440625 6.45335918 38.440625 6.70855714L38.440625 23.9602416C38.440625 24.2154396 38.6468688 24.4222404 38.9012081 24.4222404L41.7271294 24.4222404C41.9813206 24.4222404 42.1875696 24.2154396 42.1875696 23.9602416L42.1875696 18.5496045 45.0794185 18.5496045 49.0125881 24.2240939C49.0986827 24.3481722 49.2398829 24.4222404 49.3905816 24.4222404L52.767718 24.4222404 52.7704976 24.4222404C53.02498 24.4222404 53.2310807 24.2154396 53.2310807 23.9602416 53.2310807 23.8454065 53.1894232 23.7403931 53.1202818 23.6595808L53.1202818 23.6595808z" mask="url(#b)"/>
    <path fill="#1F5081" d="M62.3930269 6.56971184C62.3326161 6.37743388 62.1548783 6.24660612 61.9538973 6.24660612L57.6573737 6.24660612C57.4563927 6.24660612 57.2786019 6.37743388 57.2182441 6.56971184L51.7973602 23.8213963C51.7532195 23.9617539 51.7783581 24.1147241 51.8651833 24.2335282 51.9517174 24.3524702 52.0897038 24.4222829 52.236458 24.4222829L55.1943511 24.4222829C55.3984559 24.4222829 55.5782057 24.2876453 55.6359692 24.0911118L59.3691532 11.4032233C59.3691532 11.4032233 59.4666787 11.0864265 59.8047354 11.0864265 60.1485632 11.0864265 60.2321641 11.4156873 60.2321641 11.4161278L61.9641158 17.4327878 59.5846412 17.4327878C59.3783657 17.4327878 59.1972922 17.5703596 59.1414348 17.7696788L58.4738455 20.1513849C58.4347188 20.2907131 58.4628858 20.4403139 58.550034 20.5554461 58.6371293 20.6707269 58.7727756 20.7384861 58.9170519 20.7384861L62.9325411 20.7384861 63.9757254 24.0975641C64.0356596 24.2908714 64.213874 24.4222829 64.4154374 24.4222829L67.3748236 24.4222829C67.5215354 24.4222829 67.6594054 24.3524702 67.7460771 24.2335282 67.8329076 24.1147241 67.8580567 23.9617539 67.8139002 23.8213963L62.3930269 6.56971184zM28.3893964 6.2465902L25.5291188 6.2465902C25.2869146 6.2465902 25.0894386 6.44371265 25.0894386 6.6865898L25.0894386 20.1859808C25.0894386 21.8826082 23.8010904 22.4402286 22.9291793 22.4846727 22.8116563 22.4903927 22.67484 22.5647527 22.5997104 22.6748971 22.5242843 22.785482 22.5033814 22.9242265 22.5424075 23.05212L23.2378937 25.3220627C23.2946036 25.5078879 23.4941285 25.6271271 23.8189224 25.6271271 26.5555353 25.6271271 28.8279066 23.4712878 28.8279066 20.5813931L28.8279066 6.68688163C28.8279066 6.56998776 28.7818652 6.45808163 28.6994238 6.37536449 28.6172737 6.29279061 28.5057494 6.2465902 28.3893964 6.2465902M6.23993024 1.54025592C5.36115112 1.54025592 4.64959068 2.25348898 4.64959068 3.13744122 4.64959068 4.01904816 5.36115112 4.73463184 6.23993024 4.73463184 7.1195872 4.73463184 7.83026874 4.01904816 7.83026874 3.13744122 7.83026874 2.25348898 7.1195872 1.54025592 6.23993024 1.54025592M16.688308 1.54025592C15.8089423 1.54025592 15.0984037 2.25348898 15.0984037 3.13744122 15.0984037 4.01904816 15.8089423 4.73463184 16.688308 4.73463184 17.5650371 4.73463184 18.2783553 4.01904816 18.2783553 3.13744122 18.2783553 2.25348898 17.5650371 1.54142857 16.688308 1.54025592M11.4641112.0830461224C10.5853331.0830461224 9.87377268.795987347 9.87377268 1.68023143 9.87377268 2.56198694 10.5853331 3.27771388 11.4641112 3.27771388 12.3434769 3.27771388 13.0541585 2.56198694 13.0541585 1.68023143 13.0541585.795987347 12.3434769.0830461224 11.4641112.0830461224M20.4479277 5.99063347C20.3594929 5.92316612 20.2530778 5.88811388 20.1452067 5.88811388 20.0854207 5.88811388 20.0247611 5.89911347 19.9674636 5.92111265 18.8906218 6.33441714 17.7971129 6.64813102 16.7990593 6.8813298 16.5955899 6.929 16.4311466 7.08064898 16.3628841 7.26295673 15.6356835 9.26156612 13.7788759 11.1645539 11.8307055 13.1580322 11.7525051 13.2325355 11.6430245 13.3306563 11.4646936 13.3306563 11.2868074 13.3306563 11.1783487 13.2356184 11.0986817 13.1580322 9.1508078 11.1645539 7.29400012 9.26816694 6.56650839 7.26940898 6.49824582 7.08739837 6.33380253 6.93559551 6.13062435 6.88793061 5.13198413 6.65458857 4.0357019 6.33104245 2.96017588 5.9180298 2.90258446 5.89603061 2.84206939 5.88503102 2.78213937 5.88503102 2.674119 5.88503102 2.56975292 5.91905918 2.48146584 5.9866698 2.34362659 6.09227224 2.27185638 6.2635751 2.28822764 6.42813388 2.45325492 8.09014939 3.10766232 9.71491061 4.28887012 11.4175498 5.39918448 13.0182584 6.84744756 14.5000196 8.24761658 15.9327947 10.8275374 18.5732167 13.2646431 21.0669722 13.4784951 23.9586286 13.4977885 24.2195465 13.7144148 24.4216514 13.9756212 24.4216514L17.0066214 24.4216514C17.1431465 24.4216514 17.27353 24.3654808 17.36781 24.2661873 17.4616505 24.1668939 17.5113504 24.0338694 17.5044781 23.896738 17.4091763 21.9635371 16.6840247 20.0274073 15.2876519 17.9784906 14.9950171 17.5487584 14.6816276 17.1309065 14.3539112 16.721709 14.220748 16.5552453 14.2764414 16.3483012 14.3784673 16.2438767 14.4790319 16.1404763 14.5801841 16.0373678 14.6819188 15.9327947 16.0822361 14.4998763 17.5302043 13.0182584 18.6408146 11.4175498 19.8218742 9.71476204 20.476137 8.09953592 20.6411627 6.43766898 20.6578246 6.2707649 20.5821126 6.09358816 20.4479277 5.99063347M8.21210077 18.1821502C8.14047616 18.1069094 8.03508823 18.0300555 7.85821865 18.0300555 7.63194566 18.0300555 7.4977607 18.1869894 7.44703895 18.2647188 6.17213676 20.2114131 5.51363667 22.0486951 5.42257208 23.8950665 5.41599414 24.0311686 5.4659847 24.1663951 5.55997295 24.2658371 5.65410679 24.3646902 5.78624541 24.4217416 5.92247671 24.4217416L8.94836026 24.4217416C9.20869306 24.4217416 9.42795078 24.2172914 9.44709585 23.9568139 9.51301824 23.0669931 9.78913937 22.1749702 10.2919677 21.2376331 10.4660576 20.9133547 10.3307025 20.6087302 10.2304291 20.4784914 9.73169356 19.827738 9.12084596 19.1335698 8.21210077 18.1821502" mask="url(#b)"/>
    <path fill="#1F5081" d="M11.4675473,7.4806351 C12.4173676,7.4806351 12.968281,7.42329184 13.1619607,7.42329184 C13.3962708,7.42329184 13.6203519,7.6160102 13.6203519,7.88601755 C13.6203519,7.96478163 13.6017892,8.02095224 13.5835177,8.07067061 C13.4573699,8.40873429 12.8832135,9.6245951 11.8144089,10.6675347 C11.694551,10.7844233 11.5586082,10.8064224 11.464916,10.8064224 L11.4638941,10.8064224 C11.3704877,10.8064224 11.2345503,10.7844233 11.1148353,10.6675347 C10.0457395,9.6245951 9.47158313,8.40873429 9.34572649,8.07067061 C9.32716381,8.02095224 9.30860113,7.96478163 9.30860113,7.88601755 C9.30860113,7.6160102 9.53312163,7.42329184 9.76743174,7.42329184 C9.96096326,7.42329184 10.5117336,7.4806351 11.4612627,7.4806351 L11.4675473,7.4806351 Z" mask="url(#b)"/>
  </g>
</svg>
